<mxfile host="app.diagrams.net" modified="2023-10-01T15:31:24.113Z" agent="Mozilla/5.0 (Macintosh; Intel Mac OS X 10_15_7) AppleWebKit/537.36 (KHTML, like Gecko) Chrome/115.0.0.0 Safari/537.36" etag="iQRyWyQ8CwcbIjjtg_cw" version="22.0.0" type="github">
  <diagram name="Page-1" id="x8bxS60y4xOOfjvTRjnI">
    <mxGraphModel dx="2617" dy="1166" grid="1" gridSize="10" guides="1" tooltips="1" connect="1" arrows="1" fold="1" page="1" pageScale="1" pageWidth="827" pageHeight="1169" math="0" shadow="0">
      <root>
        <mxCell id="0" />
        <mxCell id="1" parent="0" />
        <mxCell id="1j1YlcZulKQYDeBLQHT_-1" value="" style="ellipse;whiteSpace=wrap;html=1;aspect=fixed;" parent="1" vertex="1">
          <mxGeometry x="20" y="120" width="80" height="80" as="geometry" />
        </mxCell>
        <mxCell id="1j1YlcZulKQYDeBLQHT_-2" value="" style="endArrow=classic;html=1;rounded=0;" parent="1" edge="1">
          <mxGeometry width="50" height="50" relative="1" as="geometry">
            <mxPoint x="100" y="159.5" as="sourcePoint" />
            <mxPoint x="260" y="159.5" as="targetPoint" />
            <Array as="points">
              <mxPoint x="180" y="159.5" />
            </Array>
          </mxGeometry>
        </mxCell>
        <mxCell id="1j1YlcZulKQYDeBLQHT_-3" value="" style="rhombus;whiteSpace=wrap;html=1;" parent="1" vertex="1">
          <mxGeometry x="260" y="100" width="180" height="120" as="geometry" />
        </mxCell>
        <mxCell id="1j1YlcZulKQYDeBLQHT_-4" value="Token Audit&amp;nbsp;" style="text;html=1;strokeColor=none;fillColor=none;align=center;verticalAlign=middle;whiteSpace=wrap;rounded=0;" parent="1" vertex="1">
          <mxGeometry x="250" y="30" width="200" height="90" as="geometry" />
        </mxCell>
        <mxCell id="1j1YlcZulKQYDeBLQHT_-5" value="Should proceed?&lt;br&gt;" style="text;html=1;strokeColor=none;fillColor=none;align=center;verticalAlign=middle;whiteSpace=wrap;rounded=0;" parent="1" vertex="1">
          <mxGeometry x="295" y="140" width="110" height="40" as="geometry" />
        </mxCell>
        <mxCell id="1j1YlcZulKQYDeBLQHT_-7" value="No" style="text;html=1;strokeColor=none;fillColor=none;align=center;verticalAlign=middle;whiteSpace=wrap;rounded=0;" parent="1" vertex="1">
          <mxGeometry x="500" y="120" width="60" height="30" as="geometry" />
        </mxCell>
        <mxCell id="1j1YlcZulKQYDeBLQHT_-10" value="" style="endArrow=classic;html=1;rounded=1;" parent="1" edge="1">
          <mxGeometry width="50" height="50" relative="1" as="geometry">
            <mxPoint x="690" y="110" as="sourcePoint" />
            <mxPoint x="400" y="70" as="targetPoint" />
            <Array as="points">
              <mxPoint x="690" y="70" />
            </Array>
          </mxGeometry>
        </mxCell>
        <mxCell id="1j1YlcZulKQYDeBLQHT_-11" value="" style="endArrow=classic;html=1;rounded=0;" parent="1" edge="1">
          <mxGeometry width="50" height="50" relative="1" as="geometry">
            <mxPoint x="349.5" y="220" as="sourcePoint" />
            <mxPoint x="349.5" y="320" as="targetPoint" />
          </mxGeometry>
        </mxCell>
        <mxCell id="1j1YlcZulKQYDeBLQHT_-12" value="Yes" style="text;html=1;strokeColor=none;fillColor=none;align=center;verticalAlign=middle;whiteSpace=wrap;rounded=0;" parent="1" vertex="1">
          <mxGeometry x="354" y="260" width="60" height="30" as="geometry" />
        </mxCell>
        <mxCell id="1j1YlcZulKQYDeBLQHT_-13" value="" style="rounded=1;whiteSpace=wrap;html=1;" parent="1" vertex="1">
          <mxGeometry x="250" y="320" width="200" height="90" as="geometry" />
        </mxCell>
        <mxCell id="1j1YlcZulKQYDeBLQHT_-14" value="Snipe" style="text;html=1;strokeColor=none;fillColor=none;align=center;verticalAlign=middle;whiteSpace=wrap;rounded=0;" parent="1" vertex="1">
          <mxGeometry x="270" y="350" width="160" height="30" as="geometry" />
        </mxCell>
        <mxCell id="1j1YlcZulKQYDeBLQHT_-28" value="" style="endArrow=classic;html=1;rounded=0;" parent="1" edge="1">
          <mxGeometry width="50" height="50" relative="1" as="geometry">
            <mxPoint x="349.5" y="410" as="sourcePoint" />
            <mxPoint x="349.5" y="510" as="targetPoint" />
          </mxGeometry>
        </mxCell>
        <mxCell id="1j1YlcZulKQYDeBLQHT_-29" value="" style="rhombus;whiteSpace=wrap;html=1;" parent="1" vertex="1">
          <mxGeometry x="260" y="510" width="180" height="125" as="geometry" />
        </mxCell>
        <mxCell id="1j1YlcZulKQYDeBLQHT_-30" value="Successful?" style="text;html=1;strokeColor=none;fillColor=none;align=center;verticalAlign=middle;whiteSpace=wrap;rounded=0;" parent="1" vertex="1">
          <mxGeometry x="320" y="557.5" width="60" height="30" as="geometry" />
        </mxCell>
        <mxCell id="1j1YlcZulKQYDeBLQHT_-31" value="" style="endArrow=classic;html=1;rounded=0;" parent="1" edge="1">
          <mxGeometry width="50" height="50" relative="1" as="geometry">
            <mxPoint x="440" y="572" as="sourcePoint" />
            <mxPoint x="590" y="572" as="targetPoint" />
          </mxGeometry>
        </mxCell>
        <mxCell id="1j1YlcZulKQYDeBLQHT_-32" value="No" style="text;html=1;strokeColor=none;fillColor=none;align=center;verticalAlign=middle;whiteSpace=wrap;rounded=0;" parent="1" vertex="1">
          <mxGeometry x="480" y="527.5" width="60" height="30" as="geometry" />
        </mxCell>
        <mxCell id="1j1YlcZulKQYDeBLQHT_-34" value="" style="rounded=1;whiteSpace=wrap;html=1;" parent="1" vertex="1">
          <mxGeometry x="600" y="527.5" width="200" height="90" as="geometry" />
        </mxCell>
        <mxCell id="1j1YlcZulKQYDeBLQHT_-35" value="" style="rounded=1;whiteSpace=wrap;html=1;" parent="1" vertex="1">
          <mxGeometry x="590" y="115" width="200" height="90" as="geometry" />
        </mxCell>
        <mxCell id="1j1YlcZulKQYDeBLQHT_-36" value="Find new token" style="text;html=1;strokeColor=none;fillColor=none;align=center;verticalAlign=middle;whiteSpace=wrap;rounded=0;" parent="1" vertex="1">
          <mxGeometry x="600" y="145" width="180" height="30" as="geometry" />
        </mxCell>
        <mxCell id="1j1YlcZulKQYDeBLQHT_-38" value="Cancel Orders / Liquidate" style="text;html=1;strokeColor=none;fillColor=none;align=center;verticalAlign=middle;whiteSpace=wrap;rounded=0;" parent="1" vertex="1">
          <mxGeometry x="620" y="557.5" width="160" height="30" as="geometry" />
        </mxCell>
        <mxCell id="1j1YlcZulKQYDeBLQHT_-39" value="" style="endArrow=classic;html=1;rounded=0;" parent="1" edge="1">
          <mxGeometry width="50" height="50" relative="1" as="geometry">
            <mxPoint x="440" y="159.5" as="sourcePoint" />
            <mxPoint x="590" y="159.5" as="targetPoint" />
          </mxGeometry>
        </mxCell>
        <mxCell id="1j1YlcZulKQYDeBLQHT_-40" value="" style="endArrow=classic;html=1;rounded=0;" parent="1" edge="1">
          <mxGeometry width="50" height="50" relative="1" as="geometry">
            <mxPoint x="690" y="520" as="sourcePoint" />
            <mxPoint x="689.5" y="220" as="targetPoint" />
          </mxGeometry>
        </mxCell>
        <mxCell id="1j1YlcZulKQYDeBLQHT_-41" value="" style="endArrow=classic;html=1;rounded=0;" parent="1" edge="1">
          <mxGeometry width="50" height="50" relative="1" as="geometry">
            <mxPoint x="349.5" y="635" as="sourcePoint" />
            <mxPoint x="349.5" y="735" as="targetPoint" />
          </mxGeometry>
        </mxCell>
        <mxCell id="1j1YlcZulKQYDeBLQHT_-42" value="Yes" style="text;html=1;strokeColor=none;fillColor=none;align=center;verticalAlign=middle;whiteSpace=wrap;rounded=0;" parent="1" vertex="1">
          <mxGeometry x="354" y="675" width="60" height="30" as="geometry" />
        </mxCell>
        <mxCell id="1j1YlcZulKQYDeBLQHT_-43" value="Hold inventory" style="text;html=1;strokeColor=none;fillColor=none;align=center;verticalAlign=middle;whiteSpace=wrap;rounded=0;" parent="1" vertex="1">
          <mxGeometry x="190" y="720" width="130" height="30" as="geometry" />
        </mxCell>
        <mxCell id="1j1YlcZulKQYDeBLQHT_-45" value="" style="rhombus;whiteSpace=wrap;html=1;" parent="1" vertex="1">
          <mxGeometry x="260" y="740" width="180" height="125" as="geometry" />
        </mxCell>
        <mxCell id="1j1YlcZulKQYDeBLQHT_-46" value="Has inventory 2x or more?" style="text;html=1;strokeColor=none;fillColor=none;align=center;verticalAlign=middle;whiteSpace=wrap;rounded=0;" parent="1" vertex="1">
          <mxGeometry x="260" y="787.5" width="190" height="30" as="geometry" />
        </mxCell>
        <mxCell id="1j1YlcZulKQYDeBLQHT_-48" value="" style="endArrow=classic;html=1;rounded=1;" parent="1" edge="1">
          <mxGeometry width="50" height="50" relative="1" as="geometry">
            <mxPoint x="440" y="804.5" as="sourcePoint" />
            <mxPoint x="700" y="620" as="targetPoint" />
            <Array as="points">
              <mxPoint x="700" y="805" />
            </Array>
          </mxGeometry>
        </mxCell>
        <mxCell id="1j1YlcZulKQYDeBLQHT_-49" value="No" style="text;html=1;strokeColor=none;fillColor=none;align=center;verticalAlign=middle;whiteSpace=wrap;rounded=0;" parent="1" vertex="1">
          <mxGeometry x="480" y="760" width="60" height="30" as="geometry" />
        </mxCell>
        <mxCell id="1j1YlcZulKQYDeBLQHT_-52" value="" style="endArrow=classic;html=1;rounded=0;" parent="1" edge="1">
          <mxGeometry width="50" height="50" relative="1" as="geometry">
            <mxPoint x="349.5" y="870" as="sourcePoint" />
            <mxPoint x="349.5" y="970" as="targetPoint" />
          </mxGeometry>
        </mxCell>
        <mxCell id="1j1YlcZulKQYDeBLQHT_-53" value="Yes" style="text;html=1;strokeColor=none;fillColor=none;align=center;verticalAlign=middle;whiteSpace=wrap;rounded=0;" parent="1" vertex="1">
          <mxGeometry x="354" y="905" width="60" height="30" as="geometry" />
        </mxCell>
        <mxCell id="1j1YlcZulKQYDeBLQHT_-66" value="" style="group" parent="1" vertex="1" connectable="0">
          <mxGeometry x="305" y="1900" width="110" height="40" as="geometry" />
        </mxCell>
        <mxCell id="1j1YlcZulKQYDeBLQHT_-54" value="" style="endArrow=none;html=1;rounded=0;" parent="1j1YlcZulKQYDeBLQHT_-66" edge="1">
          <mxGeometry width="50" height="50" relative="1" as="geometry">
            <mxPoint as="sourcePoint" />
            <mxPoint x="110" as="targetPoint" />
          </mxGeometry>
        </mxCell>
        <mxCell id="1j1YlcZulKQYDeBLQHT_-65" value="" style="group" parent="1j1YlcZulKQYDeBLQHT_-66" vertex="1" connectable="0">
          <mxGeometry y="10" width="110" height="30" as="geometry" />
        </mxCell>
        <mxCell id="1j1YlcZulKQYDeBLQHT_-55" value="" style="endArrow=none;html=1;rounded=0;" parent="1j1YlcZulKQYDeBLQHT_-65" edge="1">
          <mxGeometry width="50" height="50" relative="1" as="geometry">
            <mxPoint y="30" as="sourcePoint" />
            <mxPoint x="110" y="30" as="targetPoint" />
          </mxGeometry>
        </mxCell>
        <mxCell id="1j1YlcZulKQYDeBLQHT_-57" value="" style="rhombus;whiteSpace=wrap;html=1;fillColor=#e51400;fontColor=#ffffff;strokeColor=#B20000;" parent="1j1YlcZulKQYDeBLQHT_-65" vertex="1">
          <mxGeometry x="15" width="20" height="20" as="geometry" />
        </mxCell>
        <mxCell id="1j1YlcZulKQYDeBLQHT_-61" value="" style="rhombus;whiteSpace=wrap;html=1;fillColor=#e51400;fontColor=#ffffff;strokeColor=#B20000;" parent="1j1YlcZulKQYDeBLQHT_-65" vertex="1">
          <mxGeometry x="45" width="20" height="20" as="geometry" />
        </mxCell>
        <mxCell id="1j1YlcZulKQYDeBLQHT_-62" value="" style="rhombus;whiteSpace=wrap;html=1;fillColor=#e51400;fontColor=#ffffff;strokeColor=#B20000;" parent="1j1YlcZulKQYDeBLQHT_-65" vertex="1">
          <mxGeometry x="79" width="20" height="20" as="geometry" />
        </mxCell>
        <mxCell id="1j1YlcZulKQYDeBLQHT_-67" value="Divest ~ 90% of inventory" style="rounded=1;whiteSpace=wrap;html=1;" parent="1" vertex="1">
          <mxGeometry x="250" y="970" width="200" height="90" as="geometry" />
        </mxCell>
        <mxCell id="1j1YlcZulKQYDeBLQHT_-68" value="" style="endArrow=classic;html=1;rounded=0;" parent="1" edge="1">
          <mxGeometry width="50" height="50" relative="1" as="geometry">
            <mxPoint x="349.5" y="1069" as="sourcePoint" />
            <mxPoint x="349.5" y="1169" as="targetPoint" />
          </mxGeometry>
        </mxCell>
        <mxCell id="1j1YlcZulKQYDeBLQHT_-69" value="" style="endArrow=classic;html=1;rounded=1;entryX=0.5;entryY=0;entryDx=0;entryDy=0;" parent="1" target="1j1YlcZulKQYDeBLQHT_-73" edge="1">
          <mxGeometry width="50" height="50" relative="1" as="geometry">
            <mxPoint x="320" y="1250" as="sourcePoint" />
            <mxPoint x="320" y="1280" as="targetPoint" />
            <Array as="points">
              <mxPoint x="320" y="1260" />
              <mxPoint x="160" y="1260" />
            </Array>
          </mxGeometry>
        </mxCell>
        <mxCell id="1j1YlcZulKQYDeBLQHT_-70" value="" style="endArrow=classic;html=1;rounded=1;entryX=0.5;entryY=0;entryDx=0;entryDy=0;" parent="1" target="1j1YlcZulKQYDeBLQHT_-72" edge="1">
          <mxGeometry width="50" height="50" relative="1" as="geometry">
            <mxPoint x="380" y="1250" as="sourcePoint" />
            <mxPoint x="380" y="1320" as="targetPoint" />
            <Array as="points">
              <mxPoint x="380" y="1260" />
              <mxPoint x="610" y="1260" />
            </Array>
          </mxGeometry>
        </mxCell>
        <mxCell id="1j1YlcZulKQYDeBLQHT_-81" style="edgeStyle=orthogonalEdgeStyle;rounded=1;orthogonalLoop=1;jettySize=auto;html=1;entryX=0.5;entryY=0;entryDx=0;entryDy=0;" parent="1" source="1j1YlcZulKQYDeBLQHT_-72" target="1j1YlcZulKQYDeBLQHT_-79" edge="1">
          <mxGeometry relative="1" as="geometry">
            <Array as="points">
              <mxPoint x="610" y="1630" />
              <mxPoint x="355" y="1630" />
            </Array>
          </mxGeometry>
        </mxCell>
        <mxCell id="1j1YlcZulKQYDeBLQHT_-72" value="Monitor Mempool and Filter" style="rounded=1;whiteSpace=wrap;html=1;" parent="1" vertex="1">
          <mxGeometry x="510" y="1350" width="200" height="90" as="geometry" />
        </mxCell>
        <mxCell id="1j1YlcZulKQYDeBLQHT_-80" style="edgeStyle=orthogonalEdgeStyle;rounded=1;orthogonalLoop=1;jettySize=auto;html=1;entryX=0.5;entryY=0;entryDx=0;entryDy=0;" parent="1" source="1j1YlcZulKQYDeBLQHT_-73" target="1j1YlcZulKQYDeBLQHT_-79" edge="1">
          <mxGeometry relative="1" as="geometry" />
        </mxCell>
        <mxCell id="1j1YlcZulKQYDeBLQHT_-73" value="Sandwich incoming txns and blocks of txns" style="rounded=1;whiteSpace=wrap;html=1;" parent="1" vertex="1">
          <mxGeometry x="60" y="1460" width="200" height="90" as="geometry" />
        </mxCell>
        <mxCell id="1j1YlcZulKQYDeBLQHT_-76" value="" style="endArrow=classic;html=1;rounded=0;entryX=1;entryY=0.5;entryDx=0;entryDy=0;dashed=1;dashPattern=8 8;fillColor=#008a00;strokeColor=#005700;" parent="1" target="1j1YlcZulKQYDeBLQHT_-73" edge="1">
          <mxGeometry width="50" height="50" relative="1" as="geometry">
            <mxPoint x="510" y="1390" as="sourcePoint" />
            <mxPoint x="430" y="1440" as="targetPoint" />
          </mxGeometry>
        </mxCell>
        <mxCell id="1j1YlcZulKQYDeBLQHT_-79" value="Has volume dropped below threshold?" style="rhombus;whiteSpace=wrap;html=1;" parent="1" vertex="1">
          <mxGeometry x="252.5" y="1660" width="205" height="140" as="geometry" />
        </mxCell>
        <mxCell id="1j1YlcZulKQYDeBLQHT_-84" value="" style="endArrow=classic;html=1;rounded=1;" parent="1" edge="1">
          <mxGeometry width="50" height="50" relative="1" as="geometry">
            <mxPoint x="457.5" y="1730" as="sourcePoint" />
            <mxPoint x="450" y="1210" as="targetPoint" />
            <Array as="points">
              <mxPoint x="780" y="1730" />
              <mxPoint x="780" y="1480" />
              <mxPoint x="780" y="1210" />
            </Array>
          </mxGeometry>
        </mxCell>
        <mxCell id="1j1YlcZulKQYDeBLQHT_-85" value="No" style="text;html=1;strokeColor=none;fillColor=none;align=center;verticalAlign=middle;whiteSpace=wrap;rounded=0;" parent="1" vertex="1">
          <mxGeometry x="570" y="1690" width="60" height="30" as="geometry" />
        </mxCell>
        <mxCell id="1j1YlcZulKQYDeBLQHT_-86" value="" style="endArrow=classic;html=1;rounded=0;" parent="1" edge="1">
          <mxGeometry width="50" height="50" relative="1" as="geometry">
            <mxPoint x="354.5" y="1800" as="sourcePoint" />
            <mxPoint x="354" y="1900" as="targetPoint" />
          </mxGeometry>
        </mxCell>
        <mxCell id="1j1YlcZulKQYDeBLQHT_-87" value="Yes" style="text;html=1;strokeColor=none;fillColor=none;align=center;verticalAlign=middle;whiteSpace=wrap;rounded=0;" parent="1" vertex="1">
          <mxGeometry x="370" y="1830" width="60" height="30" as="geometry" />
        </mxCell>
        <mxCell id="1j1YlcZulKQYDeBLQHT_-97" value="" style="group" parent="1" vertex="1" connectable="0">
          <mxGeometry x="305" y="1200" width="110" height="40" as="geometry" />
        </mxCell>
        <mxCell id="1j1YlcZulKQYDeBLQHT_-98" value="" style="endArrow=none;html=1;rounded=0;" parent="1j1YlcZulKQYDeBLQHT_-97" edge="1">
          <mxGeometry width="50" height="50" relative="1" as="geometry">
            <mxPoint as="sourcePoint" />
            <mxPoint x="110" as="targetPoint" />
          </mxGeometry>
        </mxCell>
        <mxCell id="1j1YlcZulKQYDeBLQHT_-99" value="" style="group" parent="1j1YlcZulKQYDeBLQHT_-97" vertex="1" connectable="0">
          <mxGeometry y="10" width="110" height="30" as="geometry" />
        </mxCell>
        <mxCell id="1j1YlcZulKQYDeBLQHT_-100" value="" style="endArrow=none;html=1;rounded=0;" parent="1j1YlcZulKQYDeBLQHT_-99" edge="1">
          <mxGeometry width="50" height="50" relative="1" as="geometry">
            <mxPoint y="30" as="sourcePoint" />
            <mxPoint x="110" y="30" as="targetPoint" />
          </mxGeometry>
        </mxCell>
        <mxCell id="1j1YlcZulKQYDeBLQHT_-101" value="" style="rhombus;whiteSpace=wrap;html=1;fillColor=#e51400;fontColor=#ffffff;strokeColor=#B20000;" parent="1j1YlcZulKQYDeBLQHT_-99" vertex="1">
          <mxGeometry x="15" width="20" height="20" as="geometry" />
        </mxCell>
        <mxCell id="1j1YlcZulKQYDeBLQHT_-102" value="" style="rhombus;whiteSpace=wrap;html=1;fillColor=#e51400;fontColor=#ffffff;strokeColor=#B20000;" parent="1j1YlcZulKQYDeBLQHT_-99" vertex="1">
          <mxGeometry x="45" width="20" height="20" as="geometry" />
        </mxCell>
        <mxCell id="1j1YlcZulKQYDeBLQHT_-103" value="" style="rhombus;whiteSpace=wrap;html=1;fillColor=#e51400;fontColor=#ffffff;strokeColor=#B20000;" parent="1j1YlcZulKQYDeBLQHT_-99" vertex="1">
          <mxGeometry x="79" width="20" height="20" as="geometry" />
        </mxCell>
        <mxCell id="1j1YlcZulKQYDeBLQHT_-105" value="Liquidate Inventory" style="rounded=1;whiteSpace=wrap;html=1;" parent="1" vertex="1">
          <mxGeometry x="260" y="2030" width="200" height="90" as="geometry" />
        </mxCell>
        <mxCell id="1j1YlcZulKQYDeBLQHT_-106" value="" style="endArrow=classic;html=1;rounded=0;" parent="1" edge="1">
          <mxGeometry width="50" height="50" relative="1" as="geometry">
            <mxPoint x="354.5" y="1950" as="sourcePoint" />
            <mxPoint x="354.5" y="2020" as="targetPoint" />
          </mxGeometry>
        </mxCell>
        <mxCell id="1j1YlcZulKQYDeBLQHT_-107" value="" style="endArrow=classic;html=1;rounded=0;" parent="1" edge="1">
          <mxGeometry width="50" height="50" relative="1" as="geometry">
            <mxPoint x="470" y="2080" as="sourcePoint" />
            <mxPoint x="680" y="2080" as="targetPoint" />
          </mxGeometry>
        </mxCell>
        <mxCell id="1j1YlcZulKQYDeBLQHT_-108" value="" style="ellipse;whiteSpace=wrap;html=1;aspect=fixed;" parent="1" vertex="1">
          <mxGeometry x="700" y="2040" width="80" height="80" as="geometry" />
        </mxCell>
        <mxCell id="Nu-wrRxlN7XL5gzu9_hK-1" value="For our arb strategies do we plan on using block builders?&lt;span style=&quot;margin: 0px; padding: 0px; border: 0px; font-family: &amp;quot;gg sans&amp;quot;, &amp;quot;Noto Sans&amp;quot;, &amp;quot;Helvetica Neue&amp;quot;, Helvetica, Arial, sans-serif; font-size: 16px; vertical-align: baseline; outline: 0px; color: rgb(219, 222, 225); text-align: left; background-color: rgba(2, 2, 2, 0.06);&quot;&gt;? &lt;/span&gt;" style="text;html=1;align=center;verticalAlign=middle;resizable=0;points=[];autosize=1;strokeColor=none;fillColor=none;fontStyle=3" vertex="1" parent="1">
          <mxGeometry x="-650" y="1580" width="370" height="30" as="geometry" />
        </mxCell>
        <mxCell id="Nu-wrRxlN7XL5gzu9_hK-2" value="Is incoming TX a sell?" style="text;html=1;align=center;verticalAlign=middle;resizable=0;points=[];autosize=1;strokeColor=none;fillColor=none;" vertex="1" parent="1">
          <mxGeometry x="-210" y="1160" width="140" height="30" as="geometry" />
        </mxCell>
        <mxCell id="Nu-wrRxlN7XL5gzu9_hK-3" value="What is the est. price impact of the incoming sell tx?" style="text;html=1;align=center;verticalAlign=middle;resizable=0;points=[];autosize=1;strokeColor=none;fillColor=none;" vertex="1" parent="1">
          <mxGeometry x="-290" y="1230" width="300" height="30" as="geometry" />
        </mxCell>
        <mxCell id="Nu-wrRxlN7XL5gzu9_hK-4" value="Is est. price impact higher than threshold?" style="text;html=1;align=center;verticalAlign=middle;resizable=0;points=[];autosize=1;strokeColor=none;fillColor=none;" vertex="1" parent="1">
          <mxGeometry x="-265" y="1310" width="250" height="30" as="geometry" />
        </mxCell>
      </root>
    </mxGraphModel>
  </diagram>
</mxfile>
